<?xml version="1.0" encoding="UTF-8"?>
<svg id="Capa_2" data-name="Capa 2" xmlns="http://www.w3.org/2000/svg" viewBox="0 0 135.16 135.16">
  <g id="Modo_de_aislamiento" data-name="Modo de aislamiento">
    <g>
      <path d="M67.58,0C30.25,0,0,30.25,0,67.58s30.25,67.58,67.58,67.58,67.58-30.25,67.58-67.58S104.9,0,67.58,0Zm0,107.68c-22.01,0-39.86-17.84-39.86-39.86S45.56,27.97,67.58,27.97s39.85,17.84,39.85,39.85-17.84,39.86-39.85,39.86Z" style="fill: #f39d2f;"/>
      <path d="M88.22,67.82c0,11.41-9.24,20.65-20.64,20.65s-20.65-9.24-20.65-20.65,9.24-20.64,20.65-20.64,20.64,9.24,20.64,20.64Z" style="fill: #f39d2f;"/>
    </g>
  </g>
</svg>